/vscmnt/brussel_pixiu_data/_data_brussel/112/vsc11236/PredSimResults/SUBJ09opt3D/trackIG/worker_11.mot
version=1
nRows=10
nColumns=50
inDegrees=yes
endheader
                time	         pelvis_tilt	         pelvis_list	     pelvis_rotation	           pelvis_tx	           pelvis_ty	           pelvis_tz	       hip_flexion_r	     hip_adduction_r	      hip_rotation_r	        knee_angle_r	       ankle_angle_r	         mtp_angle_r	       hip_flexion_l	     hip_adduction_l	      hip_rotation_l	        knee_angle_l	       ankle_angle_l	         mtp_angle_l	    lumbar_extension	      lumbar_bending	     lumbar_rotation	 ercspn_r/activation	 intobl_r/activation	 extobl_r/activation	    abd_r/activation	    add_r/activation	hamstrings_r/activation	bifemsh_r/activation	glut_max_r/activation	iliopsoas_r/activation	rect_fem_r/activation	  vasti_r/activation	gastroc_r/activation	 soleus_r/activation	tib_ant_r/activation	 ercspn_l/activation	 intobl_l/activation	 extobl_l/activation	    abd_l/activation	    add_l/activation	hamstrings_l/activation	bifemsh_l/activation	glut_max_l/activation	iliopsoas_l/activation	rect_fem_l/activation	  vasti_l/activation	gastroc_l/activation	 soleus_l/activation	tib_ant_l/activation	
          0.00000000	         -5.76321949	         -2.81713338	          9.51155528	          0.00000000	          0.97420880	         -0.00389914	         33.00192871	         -0.58020693	         -9.16766948	         -7.57370155	          6.11719781	          0.26911920	        -16.58096903	         -4.41692981	         -1.95407975	         -9.34960757	          0.46809083	         41.82135336	        -12.26414536	          1.89309792	         -7.16017476	          0.05888671	          0.12977604	          0.01397007	          0.01193681	          0.30927095	          0.09947728	          0.18569611	          0.21930587	          0.14411259	          0.00999999	          0.00999999	          0.02306732	          0.01079227	          0.39977433	          0.04467677	          0.00999999	          0.00999999	          0.02049572	          0.10814092	          0.02570767	          0.22345171	          0.01397007	          0.23439134	          0.00999999	          0.00999999	          0.31495217	          0.17147116	          0.01420484	
          0.01091706	         -5.71879222	         -2.97133610	          9.48507523	          0.02239006	          0.97177239	         -0.00340113	         32.98421507	         -0.36100542	         -9.27986425	         -9.84792409	          5.62682715	          0.21197378	        -16.93097296	         -4.79611506	         -2.47722583	        -10.93935253	         -1.00721837	         43.45781450	        -11.74803338	          2.29194067	         -7.34037495	          0.04982162	          0.10979815	          0.01181950	          0.15490351	          0.31972609	          0.08680012	          0.15710981	          0.29906207	          0.12192771	          0.00999999	          0.00999999	          0.01951630	          0.01181950	          0.45349146	          0.09535072	          0.00999999	          0.00999999	          0.01734058	          0.09149357	          0.02175020	          0.18905327	          0.01181950	          0.31346214	          0.00999999	          0.00999999	          0.26646803	          0.14507467	          0.01201813	
          0.02183413	         -5.66118124	         -3.11238388	          9.41636866	          0.04464852	          0.96970451	         -0.00279770	         32.90835583	         -0.13133200	         -9.32816572	        -12.02921534	          5.05512845	          0.19524936	        -16.88326798	         -5.17881966	         -3.01035869	        -13.24839544	         -2.45544575	         44.67675986	        -11.26609166	          2.67347768	         -7.48163059	          0.04686039	          0.09289568	          0.00999999	          0.20851536	          0.32412824	          0.07343799	          0.13292413	          0.35282115	          0.10315800	          0.00999999	          0.01073345	          0.01651194	          0.00999999	          0.50695376	          0.08084390	          0.00999999	          0.00999999	          0.01467115	          0.07740893	          0.01840195	          0.15995016	          0.00999999	          0.38049757	          0.00999999	          0.00999999	          0.22544760	          0.12274169	          0.01016804	
          0.03275119	         -5.59159153	         -3.24983288	          9.30936917	          0.06642252	          0.96821886	         -0.00207889	         32.93334489	          0.10986928	         -9.31217623	        -14.35363584	          4.51383964	          0.14992079	        -16.33177547	         -5.58959126	         -3.54622238	        -16.43181910	         -3.76969650	         45.07152758	        -10.85892142	          3.05200697	         -7.57897062	          0.07033327	          0.07859520	          0.00999999	          0.24356196	          0.34887966	          0.06213285	          0.11246162	          0.37089386	          0.08727772	          0.00999999	          0.16834488	          0.01397007	          0.00999999	          0.53676115	          0.15307962	          0.00999999	          0.00999999	          0.01241265	          0.14252186	          0.01556913	          0.13532723	          0.00999999	          0.32192328	          0.00999999	          0.00999999	          0.19074190	          0.10384667	          0.00999999	
          0.04366826	         -5.51433894	         -3.36988226	          9.16356164	          0.08762684	          0.96747944	         -0.00127811	         32.94711528	          0.35901912	         -9.26174828	        -16.66734899	          4.30244118	          0.09387249	        -15.25984950	         -6.02303574	         -4.08636959	        -20.44894555	         -5.15965299	         44.61465149	        -10.53194790	          3.41330840	         -7.62935962	          0.05950608	          0.06649615	          0.00999999	          0.27106221	          0.31765715	          0.05256804	          0.09514913	          0.36578885	          0.07384208	          0.00999999	          0.31490797	          0.01181950	          0.00999999	          0.54093215	          0.15773505	          0.00999999	          0.00999999	          0.01050183	          0.19582427	          0.01317240	          0.11449478	          0.00999999	          0.27236600	          0.00999999	          0.00999999	          0.16137885	          0.08786038	          0.00999999	
          0.05458532	         -5.43596298	         -3.46334728	          8.97484621	          0.10817878	          0.96762656	         -0.00043730	         32.81052664	          0.62401712	         -9.18088486	        -18.72029595	          4.47977411	          0.05209278	        -13.69061922	         -6.47658093	         -4.63284533	        -25.14422726	         -6.89191364	         43.31148876	        -10.28947840	          3.75016135	         -7.62571624	          0.05034564	          0.05625965	          0.00999999	          0.29927840	          0.30536680	          0.05658993	          0.08050175	          0.31019647	          0.06247473	          0.00999999	          0.37199302	          0.00999999	          0.00999999	          0.51024401	          0.13991985	          0.00999999	          0.00999999	          0.00999999	          0.22778410	          0.01114462	          0.09686931	          0.00999999	          0.23043762	          0.00999999	          0.00999999	          0.13653598	          0.07433504	          0.00999999	
          0.06550239	         -5.36115562	         -3.51536607	          8.74312388	          0.12802402	          0.96864627	          0.00040395	         32.47240067	          0.89996436	         -9.03277395	        -20.39374440	          4.93638645	          0.02981722	        -11.69052790	         -6.93837850	         -5.14851954	        -30.33558234	         -8.85757346	         40.74021297	        -10.13429273	          4.04844243	         -7.56507099	          0.04259536	          0.04759896	          0.00999999	          0.32312918	          0.27911328	          0.05764116	          0.06810921	          0.26244442	          0.05285729	          0.00999999	          0.40381067	          0.00999999	          0.00999999	          0.45140780	          0.15202535	          0.04400452	          0.00999999	          0.00999999	          0.20115837	          0.00999999	          0.08195712	          0.00999999	          0.19496376	          0.00999999	          0.00999999	          0.11551745	          0.06289181	          0.11469799	
          0.07641945	         -5.29182590	         -3.53923655	          8.47755333	          0.14710947	          0.97039599	          0.00119859	         31.94264451	          1.18893402	         -8.82761586	        -21.68376655	          5.62017326	          0.04147746	         -9.35993025	         -7.38613898	         -5.49630593	        -35.86256500	        -10.55002168	         36.34782472	        -10.06516742	          4.32346898	         -7.44400846	          0.03603818	          0.04027152	          0.00999999	          0.28928454	          0.23614622	          0.05717751	          0.05762439	          0.22204339	          0.04472037	          0.00999999	          0.42858689	          0.00999999	          0.00999999	          0.38416856	          0.18934521	          0.07557634	          0.06448727	          0.01221884	          0.17019179	          0.00999999	          0.06934054	          0.00999999	          0.16495079	          0.00999999	          0.00999999	          0.09773455	          0.05321016	          0.21765467	
          0.08733652	         -5.22870270	         -3.54684524	          8.17237571	          0.16542240	          0.97273138	          0.00189358	         31.24215086	          1.48874163	         -8.59486179	        -22.58849307	          6.34257360	          0.12458111	         -6.84772771	         -7.71707196	         -5.56197082	        -41.43206359	        -11.01919704	         31.56054221	        -10.08086436	          4.58780076	         -7.25180659	          0.03049041	          0.03407207	          0.00999999	          0.26205895	          0.19979357	          0.04918497	          0.04875361	          0.18786174	          0.03783606	          0.00999999	          0.42016957	          0.00999999	          0.00999999	          0.32502916	          0.18934844	          0.07199774	          0.08360801	          0.01033786	          0.14399224	          0.00999999	          0.05866616	          0.00999999	          0.13955805	          0.00999999	          0.00999999	          0.08268917	          0.04501892	          0.21857198	
          0.09825358	         -5.17232597	         -3.53633061	          7.83038611	          0.18304808	          0.97559122	          0.00247798	         30.39154525	          1.78900135	         -8.33262560	        -23.14035910	          7.02463265	          0.27284308	         -4.24414458	         -7.89774242	         -5.41625758	        -46.82470339	        -10.48070934	         27.47001893	        -10.17196237	          4.83566245	         -6.99643232	          0.02579668	          0.02882697	          0.00999999	          0.22171726	          0.16903709	          0.05164975	          0.04124842	          0.15894206	          0.03201153	          0.00999999	          0.38212020	          0.00999999	          0.00999999	          0.27499375	          0.17231215	          0.06619123	          0.10151501	          0.00999999	          0.13140755	          0.00999999	          0.09297816	          0.00999999	          0.11807430	          0.00999999	          0.00999999	          0.06995989	          0.03808865	          0.24737954	
